{"buffers":[{"uri":"gcs-036-chair-min.bin","byteLength":1613852},{"byteLength":7664700,"extensions":{"EXT_meshopt_compression":{"fallback":true}}}],"asset":{"version":"2.0","generator":"gltfpack 0.16"},"extensionsUsed":["KHR_mesh_quantization","EXT_meshopt_compression"],"extensionsRequired":["KHR_mesh_quantization","EXT_meshopt_compression"],"bufferViews":[{"buffer":1,"byteOffset":0,"byteLength":2791200,"byteStride":8,"target":34962,"extensions":{"EXT_meshopt_compression":{"buffer":0,"byteOffset":0,"byteLength":985132,"byteStride":8,"mode":"ATTRIBUTES","count":348900}}},{"buffer":1,"byteOffset":2791200,"byteLength":1395600,"byteStride":4,"target":34962,"extensions":{"EXT_meshopt_compression":{"buffer":0,"byteOffset":985132,"byteLength":325263,"byteStride":4,"mode":"ATTRIBUTES","filter":"OCTAHEDRAL","count":348900}}},{"buffer":1,"byteOffset":4186800,"byteLength":3477456,"target":34963,"extensions":{"EXT_meshopt_compression":{"buffer":0,"byteOffset":1310396,"byteLength":303361,"byteStride":4,"mode":"TRIANGLES","count":869364}}},{"buffer":1,"byteOffset":7664256,"byteLength":444,"target":34963,"extensions":{"EXT_meshopt_compression":{"buffer":0,"byteOffset":1613760,"byteLength":91,"byteStride":2,"mode":"TRIANGLES","count":222}}}],"accessors":[{"bufferView":0,"byteOffset":0,"componentType":5123,"count":348752,"type":"VEC3","min":[0,0,0],"max":[11576,16383,11185]},{"bufferView":1,"byteOffset":0,"componentType":5120,"count":348752,"type":"VEC3","normalized":true},{"bufferView":2,"byteOffset":0,"componentType":5125,"count":869364,"type":"SCALAR"},{"bufferView":0,"byteOffset":2790016,"componentType":5123,"count":148,"type":"VEC3","min":[611,7590,360],"max":[6526,16159,10799]},{"bufferView":1,"byteOffset":1395008,"componentType":5120,"count":148,"type":"VEC3","normalized":true},{"bufferView":3,"byteOffset":0,"componentType":5123,"count":222,"type":"SCALAR"}],"materials":[{"name":"Base","pbrMetallicRoughness":{"baseColorFactor":[0.800000012,0.800000012,0.800000012,1]},"doubleSided":true},{"name":"Black","pbrMetallicRoughness":{"baseColorFactor":[0,0,0,1],"roughnessFactor":0},"doubleSided":true}],"meshes":[{"primitives":[{"attributes":{"POSITION":0,"NORMAL":1},"mode":4,"indices":2,"material":0},{"attributes":{"POSITION":3,"NORMAL":4},"mode":4,"indices":5,"material":1}]}],"nodes":[{"mesh":0,"translation":[-0.768094301,0.00105955265,-1.33903885],"scale":[0.000240665424,0.000240665424,0.000240665424]}],"scenes":[{"name":"Scene","nodes":[0]}],"scene":0}