{"buffers":[{"uri":"rack-01.bin","byteLength":2456892},{"byteLength":12615108,"extensions":{"EXT_meshopt_compression":{"fallback":true}}}],"asset":{"version":"2.0","generator":"gltfpack 0.16"},"extensionsUsed":["KHR_mesh_quantization","EXT_meshopt_compression"],"extensionsRequired":["KHR_mesh_quantization","EXT_meshopt_compression"],"bufferViews":[{"buffer":1,"byteOffset":0,"byteLength":2786992,"byteStride":8,"target":34962,"extensions":{"EXT_meshopt_compression":{"buffer":0,"byteOffset":0,"byteLength":961312,"byteStride":8,"mode":"ATTRIBUTES","count":348374}}},{"buffer":1,"byteOffset":2786992,"byteLength":1393496,"byteStride":4,"target":34962,"extensions":{"EXT_meshopt_compression":{"buffer":0,"byteOffset":961312,"byteLength":680897,"byteStride":4,"mode":"ATTRIBUTES","filter":"OCTAHEDRAL","count":348374}}},{"buffer":1,"byteOffset":4180488,"byteLength":852,"target":34963,"extensions":{"EXT_meshopt_compression":{"buffer":0,"byteOffset":1642212,"byteLength":159,"byteStride":2,"mode":"TRIANGLES","count":426}}},{"buffer":1,"byteOffset":4181340,"byteLength":8433768,"target":34963,"extensions":{"EXT_meshopt_compression":{"buffer":0,"byteOffset":1642372,"byteLength":814520,"byteStride":4,"mode":"TRIANGLES","count":2108442}}}],"accessors":[{"bufferView":0,"byteOffset":0,"componentType":5123,"count":284,"type":"VEC3","min":[704,7880,237],"max":[6385,16221,14196]},{"bufferView":1,"byteOffset":0,"componentType":5120,"count":284,"type":"VEC3","normalized":true},{"bufferView":2,"byteOffset":0,"componentType":5123,"count":426,"type":"SCALAR"},{"bufferView":0,"byteOffset":2272,"componentType":5123,"count":348090,"type":"VEC3","min":[0,0,0],"max":[7037,16383,14384]},{"bufferView":1,"byteOffset":1136,"componentType":5120,"count":348090,"type":"VEC3","normalized":true},{"bufferView":3,"byteOffset":0,"componentType":5125,"count":2108442,"type":"SCALAR"}],"materials":[{"name":"Black","pbrMetallicRoughness":{"baseColorFactor":[0,0,0,1],"metallicFactor":0,"roughnessFactor":0.5},"doubleSided":true},{"name":"Great","pbrMetallicRoughness":{"baseColorFactor":[0.800000012,0.800000012,0.800000012,1],"metallicFactor":0,"roughnessFactor":0.5},"doubleSided":true}],"meshes":[{"primitives":[{"attributes":{"POSITION":0,"NORMAL":1},"mode":4,"indices":2,"material":0},{"attributes":{"POSITION":3,"NORMAL":4},"mode":4,"indices":5,"material":1}]}],"nodes":[{"mesh":0,"translation":[-0.873779655,-0.00157383515,-1.78090906],"scale":[0.000247038814,0.000247038814,0.000247038814]}],"scenes":[{"name":"Scene","nodes":[0]}],"scene":0}