{"buffers":[{"uri":"rack-02.bin","byteLength":2398500},{"byteLength":12324276,"extensions":{"EXT_meshopt_compression":{"fallback":true}}}],"asset":{"version":"2.0","generator":"gltfpack 0.16"},"extensionsUsed":["KHR_mesh_quantization","EXT_meshopt_compression"],"extensionsRequired":["KHR_mesh_quantization","EXT_meshopt_compression"],"bufferViews":[{"buffer":1,"byteOffset":0,"byteLength":2721552,"byteStride":8,"target":34962,"extensions":{"EXT_meshopt_compression":{"buffer":0,"byteOffset":0,"byteLength":940647,"byteStride":8,"mode":"ATTRIBUTES","count":340194}}},{"buffer":1,"byteOffset":2721552,"byteLength":1360776,"byteStride":4,"target":34962,"extensions":{"EXT_meshopt_compression":{"buffer":0,"byteOffset":940648,"byteLength":664318,"byteStride":4,"mode":"ATTRIBUTES","filter":"OCTAHEDRAL","count":340194}}},{"buffer":1,"byteOffset":4082328,"byteLength":732,"target":34963,"extensions":{"EXT_meshopt_compression":{"buffer":0,"byteOffset":1604968,"byteLength":139,"byteStride":2,"mode":"TRIANGLES","count":366}}},{"buffer":1,"byteOffset":4083060,"byteLength":8241216,"target":34963,"extensions":{"EXT_meshopt_compression":{"buffer":0,"byteOffset":1605108,"byteLength":793391,"byteStride":4,"mode":"TRIANGLES","count":2060304}}}],"accessors":[{"bufferView":0,"byteOffset":0,"componentType":5123,"count":244,"type":"VEC3","min":[704,7880,237],"max":[6374,16221,14196]},{"bufferView":1,"byteOffset":0,"componentType":5120,"count":244,"type":"VEC3","normalized":true},{"bufferView":2,"byteOffset":0,"componentType":5123,"count":366,"type":"SCALAR"},{"bufferView":0,"byteOffset":1952,"componentType":5123,"count":339950,"type":"VEC3","min":[0,0,0],"max":[7037,16383,14384]},{"bufferView":1,"byteOffset":976,"componentType":5120,"count":339950,"type":"VEC3","normalized":true},{"bufferView":3,"byteOffset":0,"componentType":5125,"count":2060304,"type":"SCALAR"}],"materials":[{"name":"Black","pbrMetallicRoughness":{"baseColorFactor":[0,0,0,1],"metallicFactor":0,"roughnessFactor":0.5},"doubleSided":true},{"name":"Great","pbrMetallicRoughness":{"baseColorFactor":[0.800000012,0.800000012,0.800000012,1],"metallicFactor":0,"roughnessFactor":0.5},"doubleSided":true}],"meshes":[{"primitives":[{"attributes":{"POSITION":0,"NORMAL":1},"mode":4,"indices":2,"material":0},{"attributes":{"POSITION":3,"NORMAL":4},"mode":4,"indices":5,"material":1}]}],"nodes":[{"mesh":0,"translation":[-0.873779655,-0.00157383515,-1.78090906],"scale":[0.000247038814,0.000247038814,0.000247038814]}],"scenes":[{"name":"Scene","nodes":[0]}],"scene":0}